<?xml version="1.0" standalone="no"?>
<!DOCTYPE svg PUBLIC "-//W3C//DTD SVG 20010904//EN"
 "http://www.w3.org/TR/2001/REC-SVG-20010904/DTD/svg10.dtd">
<svg version="1.0" xmlns="http://www.w3.org/2000/svg"
 width="200.000000pt" height="200.000000pt" viewBox="0 0 200.000000 200.000000"
 preserveAspectRatio="xMidYMid meet">
<metadata>
Created by potrace 1.11, written by Peter Selinger 2001-2013
</metadata>
<g transform="translate(0.000000,200.000000) scale(0.100000,-0.100000)"
fill="#000000" stroke="none">
<path d="M932 1636 c-24 -6 -43 -15 -42 -21 1 -5 -8 -12 -20 -15 -19 -5 -17
-9 23 -50 34 -36 42 -49 34 -62 -9 -14 -21 -12 -106 17 -66 23 -101 30 -113
24 -25 -13 -133 -121 -147 -146 -11 -21 -9 -22 21 -18 18 2 76 7 128 10 52 4
116 8 142 10 36 3 48 0 53 -12 8 -22 0 -28 -162 -121 l-142 -82 -63 5 c-35 3
-83 8 -108 11 -25 3 -58 8 -73 10 -85 10 -205 52 -227 78 -7 9 -16 16 -20 16
-7 0 -4 -72 5 -125 2 -11 4 -27 4 -36 1 -9 10 -19 21 -22 11 -3 24 -17 30 -31
7 -20 17 -26 40 -27 16 -1 35 -3 40 -4 6 -1 32 -3 60 -4 l49 -1 -3 -65 c-2
-36 -6 -68 -9 -71 -3 -3 -42 -6 -86 -6 l-81 0 0 -34 c0 -19 1 -37 3 -41 1 -5
31 -9 67 -9 101 -3 99 -3 95 -21 -1 -10 -6 -70 -10 -133 -10 -180 -13 -229
-19 -315 -4 -44 -8 -117 -11 -162 l-5 -83 92 0 c51 0 113 6 138 14 25 7 81 14
125 16 186 5 254 13 327 36 117 38 78 65 -145 105 -135 23 -191 42 -185 61 4
13 94 62 132 72 44 12 -2 26 -97 29 -54 3 -101 7 -104 11 -4 4 -2 16 5 27 12
19 11 20 -20 15 -18 -2 -51 -7 -74 -11 l-40 -5 2 167 c1 93 2 170 3 173 0 3
145 5 321 5 l320 0 0 -173 c0 -95 -4 -171 -9 -168 -33 21 -452 26 -476 6 -28
-23 -4 -30 98 -28 56 1 118 -1 139 -5 44 -9 57 -35 29 -59 -23 -18 -27 -38 -8
-39 6 0 59 -3 117 -6 58 -2 106 -6 108 -8 2 -1 4 -54 5 -116 l2 -114 75 0 c64
0 75 2 74 17 -1 9 -5 79 -8 155 -4 76 -9 154 -11 173 -3 19 -7 71 -10 115 -2
44 -7 118 -11 165 l-5 85 68 -1 c97 -1 102 1 100 45 l-2 36 -72 1 c-95 1 -99
4 -101 57 -2 25 -5 55 -7 66 -3 19 1 21 38 22 23 0 61 2 85 4 36 3 42 1 42
-15 0 -16 106 -153 187 -240 25 -26 33 -31 33 -17 0 9 6 17 14 17 29 0 84 180
80 265 -1 17 -2 47 -3 68 -1 36 -3 39 -63 66 -147 66 -158 72 -158 87 0 13 -3
14 -13 5 -10 -8 -42 2 -130 41 -95 42 -114 54 -107 67 7 13 31 15 159 13 120
-3 151 -1 149 9 -2 7 3 14 10 15 6 1 15 2 19 3 11 2 -46 58 -104 102 l-51 40
-94 -40 -93 -39 -26 31 -26 31 30 39 c36 44 31 52 -37 56 -33 1 -47 -3 -54
-14 -5 -9 -13 -16 -18 -16 -9 1 -10 -3 -13 -34 -2 -32 -29 -14 -36 23 -7 43
-16 45 -83 28z m69 -364 c4 -4 4 -27 0 -52 l-6 -45 -68 -3 -68 -3 43 60 c37
53 46 60 68 55 14 -3 28 -8 31 -12z m163 -24 c19 -24 32 -46 28 -50 -4 -4 -36
-10 -72 -13 l-64 -6 27 23 c23 20 26 29 21 56 -9 46 16 42 60 -10z m-416 -285
c3 -63 3 -63 -25 -64 -39 -1 -202 -1 -238 0 l-31 1 2 63 c1 34 2 63 3 65 1 1
65 1 144 0 l142 -3 3 -62z m352 3 c0 -46 -4 -66 -12 -67 -7 0 -71 -1 -143 -1
l-130 0 -1 58 c-1 33 0 61 1 64 2 3 67 7 144 9 l141 2 0 -65z"/>
</g>
</svg>
